<?xml version="1.0" encoding="utf-8"?>
<!-- Designed by Vexels.com - 2021 All Rights Reserved - https://vexels.com/terms-and-conditions/  -->
<svg version="1.1" id="Capa_1" xmlns="http://www.w3.org/2000/svg" xmlns:xlink="http://www.w3.org/1999/xlink" x="0px" y="0px"
	 viewBox="0 0 1200 1200" enable-background="new 0 0 1200 1200" xml:space="preserve">
<g>
	<g>
		<g>
			<path fill="#AD8C5B" d="M1114.025,530.038H109.454c-6.662,0-12.062-5.4-12.062-12.062V411.833c0-6.662,5.4-12.062,12.062-12.062
				h1004.571c6.662,0,12.062,5.4,12.062,12.062v106.143C1126.087,524.638,1120.687,530.038,1114.025,530.038z"/>
			<g>
				<rect x="95.319" y="422.967" fill="#FFFFFF" width="1030.768" height="5.197"/>
			</g>
			<path fill="#262424" d="M1110.415,535.885H113.064c-11.866,0-21.519-9.653-21.519-21.519v-98.923
				c0-11.865,9.653-21.519,21.519-21.519h997.351c11.866,0,21.519,9.653,21.519,21.519v98.923
				C1131.934,526.231,1122.281,535.885,1110.415,535.885z M113.064,405.618c-5.418,0-9.826,4.407-9.826,9.825v98.923
				c0,5.418,4.408,9.825,9.826,9.825h997.351c5.418,0,9.826-4.407,9.826-9.825v-98.923c0-5.418-4.408-9.825-9.826-9.825H113.064z"/>
		</g>
		<g>
			<polygon fill="#FFFFFF" points="715.518,399.785 523.019,530.057 394.8,530.133 586.41,399.771 			"/>
			<path fill="#262424" d="M375.795,535.991L584.61,393.924l149.975,0.016L524.812,535.902L375.795,535.991z M588.211,405.618
				L413.804,524.275l107.42-0.063L696.449,405.63L588.211,405.618z"/>
		</g>
		<g>
			<polygon fill="#FFFFFF" points="992.944,399.785 799.837,530.133 672.075,530.019 863.836,399.771 			"/>
			<path fill="#262424" d="M801.624,535.981l-148.538-0.133l208.952-141.924l150.015,0.016L801.624,535.981z M691.064,524.189
				l106.986,0.095L973.836,405.63l-108.202-0.012L691.064,524.189z"/>
		</g>
		<g>
			<path fill="#FFFFFF" d="M1102.308,530.038H121.17v551.782c0,34.426,27.908,62.333,62.334,62.333h856.471
				c34.426,0,62.333-27.908,62.333-62.333V530.038z"/>
			<path fill="#262424" d="M1021.319,1150H202.16c-47.882,0-86.836-38.954-86.836-86.835V524.191h992.831v538.974
				C1108.155,1111.046,1069.201,1150,1021.319,1150z M127.017,535.885v527.281c0,41.434,33.709,75.141,75.143,75.141h819.159
				c41.434,0,75.143-33.708,75.143-75.141V535.885H127.017z"/>
		</g>
		<g>
			<path fill="#AD8C5B" d="M1087.272,182.555L113.34,396.162c-8.527,1.87-16.956-3.526-18.826-12.053l-21.135-96.363
				c-1.87-8.527,3.526-16.956,12.053-18.826l973.933-213.608c8.527-1.87,16.956,3.526,18.826,12.053l21.135,96.363
				C1101.196,172.256,1095.799,180.684,1087.272,182.555z"/>
			<g>
				
					<rect x="80.618" y="260.375" transform="matrix(0.9776 -0.2105 0.2105 0.9776 -42.0302 131.0112)" fill="#FFFFFF" width="1027.773" height="5.197"/>
			</g>
			<path fill="#262424" d="M113.556,401.476c-12.12,0-23.065-8.42-25.767-20.735l-19.107-87.122
				c-3.116-14.21,5.909-28.306,20.119-31.424l964.691-211.581c14.21-3.112,28.308,5.908,31.424,20.119l19.109,87.122
				c1.51,6.883,0.249,13.943-3.551,19.878c-3.8,5.936-9.685,10.035-16.568,11.545L119.212,400.86
				C117.317,401.276,115.421,401.476,113.556,401.476z M1059.146,61.694c-1.041,0-2.094,0.111-3.151,0.343L91.305,273.617
				c-7.911,1.736-12.937,9.585-11.201,17.497l19.107,87.122c1.737,7.912,9.582,12.935,17.497,11.202l964.691-211.581
				c3.833-0.841,7.109-3.124,9.224-6.429c2.116-3.305,2.819-7.235,1.978-11.068l-19.109-87.122
				C1071.99,66.382,1065.894,61.694,1059.146,61.694z"/>
		</g>
		<g>
			<polygon fill="#FFFFFF" points="710.555,265.254 522.866,173.083 401.949,199.548 588.477,291.215 			"/>
			<path fill="#262424" d="M587.715,297.355l-203.364-99.941l139.26-30.48l204.694,100.522L587.715,297.355z M419.545,201.682
				l169.694,83.394l103.566-22.024l-170.684-83.821L419.545,201.682z"/>
		</g>
		<g>
			<polygon fill="#FFFFFF" points="763.961,120.21 949.653,212.933 830.409,239.093 643.556,146.561 			"/>
			<path fill="#262424" d="M829.655,245.245L626.037,144.409l138.69-30.352l202.346,101.039L829.655,245.245z M661.074,148.712
				l170.088,84.231l101.07-22.174l-169.037-84.406L661.074,148.712z"/>
		</g>
		<g>
			<path fill="#D56B52" d="M188.785,306.723h-56.51c-4.928,0-8.922,4.433-8.922,9.902v156.642c0,5.469,3.995,9.902,8.922,9.902
				h166.413c4.928,0,8.922-4.433,8.922-9.902v-43.901c0-2.761-1.039-5.397-2.866-7.272l-109.903-112.74
				C193.193,307.663,191.031,306.723,188.785,306.723z"/>
			<path fill="#262424" d="M298.688,489.017H132.275c-8.143,0-14.769-7.065-14.769-15.749V316.625
				c0-8.684,6.626-15.749,14.769-15.749h56.51c3.842,0,7.48,1.561,10.243,4.395l109.903,112.742
				c2.876,2.95,4.526,7.088,4.526,11.353v43.901C313.457,481.952,306.832,489.017,298.688,489.017z M132.275,312.57
				c-1.667,0-3.076,1.857-3.076,4.055v156.642c0,2.198,1.408,4.056,3.076,4.056h166.413c1.667,0,3.076-1.858,3.076-4.056v-43.901
				c0-1.242-0.439-2.404-1.205-3.19L190.655,313.435c-0.543-0.557-1.208-0.865-1.87-0.865H132.275z"/>
		</g>
		<g>
			<circle fill="#FFFFFF" cx="161.032" cy="346.01" r="13.555"/>
			<path fill="#262424" d="M161.032,365.412c-10.697,0-19.402-8.704-19.402-19.402c0-10.698,8.704-19.402,19.402-19.402
				c10.697,0,19.402,8.704,19.402,19.402C180.433,356.708,171.729,365.412,161.032,365.412z M161.032,338.302
				c-4.251,0-7.708,3.458-7.708,7.708c0,4.251,3.458,7.708,7.708,7.708c4.251,0,7.708-3.458,7.708-7.708
				C168.74,341.76,165.282,338.302,161.032,338.302z"/>
		</g>
		<g>
			<circle fill="#FFFFFF" cx="161.032" cy="447.329" r="13.555"/>
			<path fill="#262424" d="M161.032,466.731c-10.697,0-19.402-8.704-19.402-19.402c0-10.698,8.704-19.402,19.402-19.402
				c10.697,0,19.402,8.704,19.402,19.402C180.433,458.027,171.729,466.731,161.032,466.731z M161.032,439.621
				c-4.251,0-7.708,3.458-7.708,7.708s3.458,7.709,7.708,7.709c4.251,0,7.708-3.458,7.708-7.709S165.282,439.621,161.032,439.621z"
				/>
		</g>
		<g>
			<circle fill="#FFFFFF" cx="272.689" cy="449.167" r="13.555"/>
			<path fill="#262424" d="M272.689,468.569c-10.698,0-19.402-8.704-19.402-19.402c0-10.699,8.704-19.402,19.402-19.402
				c10.699,0,19.403,8.704,19.403,19.402C292.092,459.865,283.387,468.569,272.689,468.569z M272.689,441.458
				c-4.251,0-7.708,3.458-7.708,7.709s3.458,7.708,7.708,7.708c4.251,0,7.709-3.458,7.709-7.708S276.939,441.458,272.689,441.458z"
				/>
		</g>
		<g>
			<path fill="#262424" d="M1038.174,637.739H192.992c-3.229,0-5.847-2.618-5.847-5.847s2.618-5.847,5.847-5.847h845.182
				c3.229,0,5.847,2.618,5.847,5.847S1041.403,637.739,1038.174,637.739z"/>
		</g>
		<g>
			<path fill="#262424" d="M1034.315,841.41H190.098c-3.229,0-5.847-2.618-5.847-5.847s2.618-5.847,5.847-5.847h844.217
				c3.229,0,5.847,2.618,5.847,5.847S1037.545,841.41,1034.315,841.41z"/>
		</g>
		<g>
			<path fill="#262424" d="M1038.018,1018.68H191.871c-3.229,0-5.847-2.618-5.847-5.847c0-3.229,2.618-5.847,5.847-5.847h846.147
				c3.229,0,5.847,2.618,5.847,5.847C1043.865,1016.063,1041.247,1018.68,1038.018,1018.68z"/>
		</g>
		<g>
			<path fill="#262424" d="M412.007,840.377c-3.229,0-5.847-2.618-5.847-5.847V632.926c0-3.229,2.618-5.847,5.847-5.847
				c3.229,0,5.847,2.618,5.847,5.847V834.53C417.854,837.759,415.236,840.377,412.007,840.377z"/>
		</g>
		<g>
			<path fill="#262424" d="M820.126,840.377c-3.229,0-5.847-2.618-5.847-5.847V632.811c0-3.229,2.618-5.847,5.847-5.847
				s5.847,2.618,5.847,5.847V834.53C825.973,837.759,823.355,840.377,820.126,840.377z"/>
		</g>
	</g>
	<g>
		<path fill="#262424" d="M379.121,603.824H199.367c-2.779,0-5.032-2.253-5.032-5.032v-23.701c0-2.779,2.253-5.032,5.032-5.032
			h179.754c2.779,0,5.032,2.253,5.032,5.032v23.701C384.153,601.571,381.9,603.824,379.121,603.824z"/>
	</g>
	<g>
		<path fill="#262424" d="M326.191,694.171H198.454c-2.779,0-5.032-2.253-5.032-5.032v-23.701c0-2.779,2.253-5.032,5.032-5.032
			h127.736c2.779,0,5.032,2.253,5.032,5.032v23.701C331.223,691.918,328.97,694.171,326.191,694.171z"/>
	</g>
	<g>
		<path fill="#262424" d="M584.453,694.171H456.717c-2.779,0-5.032-2.253-5.032-5.032v-23.701c0-2.779,2.253-5.032,5.032-5.032
			h127.736c2.779,0,5.032,2.253,5.032,5.032v23.701C589.485,691.918,587.232,694.171,584.453,694.171z"/>
	</g>
	<g>
		<path fill="#262424" d="M317.977,914.599H190.241c-2.779,0-5.032-2.253-5.032-5.032v-23.701c0-2.779,2.253-5.032,5.032-5.032
			h127.736c2.779,0,5.032,2.253,5.032,5.032v23.701C323.01,912.346,320.757,914.599,317.977,914.599z"/>
	</g>
	<g>
		<path fill="#262424" d="M317.977,1088.865H190.241c-2.779,0-5.032-2.253-5.032-5.032v-23.701c0-2.779,2.253-5.032,5.032-5.032
			h127.736c2.779,0,5.032,2.253,5.032,5.032v23.701C323.01,1086.612,320.757,1088.865,317.977,1088.865z"/>
	</g>
	<g>
		<path fill="#262424" d="M981.429,694.171H853.693c-2.779,0-5.032-2.253-5.032-5.032v-23.701c0-2.779,2.253-5.032,5.032-5.032
			h127.736c2.779,0,5.032,2.253,5.032,5.032v23.701C986.461,691.918,984.208,694.171,981.429,694.171z"/>
	</g>
</g>
</svg>
