<?xml version="1.0" encoding="utf-8"?>
<!-- Designed by Vexels.com - 2019 All Rights Reserved - https://vexels.com/terms-and-conditions/  -->
<svg version="1.1" id="Capa_1" xmlns="http://www.w3.org/2000/svg" xmlns:xlink="http://www.w3.org/1999/xlink" x="0px" y="0px"
	 viewBox="0 0 1200 1200" enable-background="new 0 0 1200 1200" xml:space="preserve">
<g>
	<path fill="#EBCA75" d="M966.943,590.581c11.151-0.264,23.081,0.863,31.852,7.755c11.441,8.99,14.26,25.12,14.081,39.67
		c-0.493,40.211-17.165,78.176-27.522,117.034c-9.379,35.189-13.643,71.737-12.618,108.139c0.224,7.944,1.113,16.782,7.082,22.029
		c5.061,4.448,12.365,5.012,19.102,5.105c34.773,0.479,69.626-5.857,102.005-18.544c-17.584,61.753-37.639,122.802-60.099,182.952
		c-21.339,1.987-42.679,3.974-64.018,5.961c-37.36,3.479-78.75,5.864-108.426-17.097c-36.617-28.333-39.132-83.636-25.585-127.909
		s39.455-84.389,49.375-129.612c4.603-20.984,3.122-47.626-15.818-57.763c-4.635-2.481-10.261-3.938-13.136-8.339
		c-2.56-3.92-2.127-9.011-1.513-13.653c3.282-24.805,7.582-73.839,25.29-92.93C903.259,595.844,944.583,591.11,966.943,590.581z"/>
	<path fill="#EBCA75" d="M174.89,879.053c-15.58-5.756-28.145-17.535-39.194-29.936C57.791,761.686,38.043,634.29,56.348,518.625
		s70.065-222.949,121.201-328.299c6.452-13.292,14.381-27.896,28.521-32.178c62.779-19.013,53.194,44.734,49.811,80.927
		c-4.855,51.938-11.561,103.685-19.028,155.306c-14.818,102.434-32.794,204.407-45.843,307.096
		C183.516,760.449,177.618,819.655,174.89,879.053z"/>
	<path fill="#71B7A9" d="M964.809,566.208c-2.357,30.982-6.196,61.964-13.875,92.071
		c-25.998,101.971-96.314,190.203-185.892,245.499c-89.512,55.229-196.939,78.533-302.008,73.818
		c-43.51-1.886-87.491-8.688-126.757-27.547c-50.178-24.112-89.646-66.746-119.012-114.028
		c-58.664-94.563-80.015-211.419-59.472-320.665c53.209,5.927,106.417,11.989,159.625,17.983
		c17.579,1.953,35.495,3.907,52.871,0.539c1.886-0.404,3.907-0.876,5.051-2.425c1.212-1.549,1.145-3.704,0.876-5.658
		c-2.761-18.32-19.195-30.847-32.935-43.308c-18.185-16.434-33.474-35.697-47.281-55.835c-20.61-30.107-38.122-62.234-58.866-92.138
		c38.997-53.141,89.511-97.931,147.501-129.384c16.434-8.823,34.283-16.838,52.535-19.667
		c72.404-32.464,152.082-49.302,230.817-41.422c94.091,9.362,186.027,56.778,239.37,134.772
		C963.597,361.053,972.487,466.864,964.809,566.208z"/>
	<path fill="#EADFDD" d="M681.402,463.994c12.796-7.988,30.735-15.191,41.554-4.68c4.775,4.639,6.477,11.517,7.843,18.033
		c17.122,81.679,14.176,167.489-8.509,247.801c-40.96-64.015-108.341-76.408-166.123-117.058
		c-39.62-27.872,6.789-54.586,32.064-76.031C617.583,507.153,648.747,484.378,681.402,463.994z"/>
	<path fill="#EADFDD" d="M213.932,791.059c54.92-43.717,107.974-89.779,158.968-138.019c1.784-1.688,3.634-3.484,4.373-5.827
		c1.144-3.626-0.684-7.525-2.99-10.548c-7.429-9.737-19.538-14.489-31.128-18.448c-32.194-10.996-163.897-55.946-175.431-17.263
		c-7.561,25.359,7.63,72.154,13.711,97.226C183.507,706.729,214.021,790.989,213.932,791.059z"/>
	<path fill="#EADFDD" d="M393.173,426.008c18.654,29.74,38.554,60.694,69.173,77.869c1.378,0.773,2.932,1.54,4.474,1.192
		c2.055-0.464,3.159-2.652,3.925-4.614c3.718-9.518,6.083-19.501,8.334-29.468c11.138-49.316,19.779-99.196,25.879-149.384
		c0.843-6.933,1.43-14.671-2.847-20.192c-2.999-3.871-7.807-5.813-12.44-7.402c-44.874-15.391-95.505-12.554-138.675,6.936
		c-10.818,4.884-19.462,6.771-17.569,18.952c1.793,11.537,12.271,25.724,17.8,35.948
		C364.195,379.821,378.695,402.925,393.173,426.008z"/>
	<path fill="#EADFDD" d="M474.75,906.466c31.751-8.404,63.517-16.812,94.833-26.717c26.226-8.295,52.396-17.77,75.442-32.787
		c4.07-2.652,8.354-5.949,9.246-10.725c0.507-2.715-0.186-5.498-0.932-8.157c-17.42-62.132-64.312-110.946-109.542-156.968
		c-6.014-6.12-12.189-12.356-19.901-16.117c-23.822-11.617-28.85,7.495-34.027,25.836c-6.795,24.071-11.918,48.61-15.353,73.384
		C467.523,804.645,467.546,856.061,474.75,906.466z"/>
	<g>
		<path fill="#3A3A3A" d="M331.049,1026.059c-18.672-0.272-51.337-0.839-84.005-1.205c-47.768-0.536-94.582-7.828-140.769-19.609
			c-9.368-2.389-18.336-5.536-26.271-11.576c-5.249-3.994-11.724-6.334-17.318-9.93c-10.647-6.845-11.825-20.101-2.346-28.313
			c4.436-3.843,9.555-7.08,14.777-9.8c16.551-8.621,34.09-14.665,52.423-18.106c32.875-6.17,65.91-10.91,99.525-9.724
			c3.652,0.129,7.34-0.532,10.996-0.955c0.542-0.063,1.407-0.821,1.425-1.284c0.052-1.382,0.287-3.338-0.491-4.072
			c-3.758-3.543-7.757-6.843-11.792-10.078c-76.867-61.63-124.497-141.298-140.601-238.034
			C66.303,541.44,97.22,432.38,176.856,337.449c6.667-7.947,13.327-15.926,19.522-24.238c12.227-16.407,28.667-27.912,45.196-39.24
			c16.521-11.323,33.546-21.909,50.181-33.069c23.063-15.472,48.45-25.976,74.886-33.559c12.695-3.641,26.314-4.402,39.593-5.595
			c23.67-2.128,47.38-3.177,71.192-1.844c84.469,4.729,159.144,34.551,223.535,88.933
			c70.612,59.635,114.182,135.608,131.863,226.364c5.986,30.724,8.592,61.72,7.345,93.021c-0.177,4.444-0.505,8.94,0.019,13.318
			c0.151,1.257,3.534,3.443,4.59,3.032c3.386-1.32,6.437-3.566,9.51-5.615c28.358-18.904,59.702-29.645,93.379-33.603
			c13.29-1.562,26.601-1.469,39.796,2.059c23.683,6.331,38.171,22.408,40.852,46.984c1.86,17.05,1.434,34.227-1.387,51.095
			c-5.39,32.226-12.84,63.991-23.62,94.923c-5.858,16.81-11.207,33.798-16.687,50.738c-1.368,4.229-2.473,8.553-3.492,12.882
			c-4.513,19.179-1.994,21.294,18.022,20.316c42.248-2.063,81.167-16.533,120.232-30.725c4.835-1.757,9.68-3.833,14.702-4.652
			c8.952-1.46,16.334,6.86,13.167,15.449c-4.346,11.786-9.923,23.123-15.079,34.604c-6.466,14.398-16.57,26.304-26.514,38.305
			c-17.497,21.117-36.959,40.614-52.284,63.524c-3.088,4.616-7.262,7.25-13.156,6.434c-4.749-0.657-8.526,1.762-12.33,4.182
			c-28.809,18.333-60.537,27.567-94.36,30.585c-13.462,1.201-26.624,0.412-39.804-2.521c-17.657-3.929-28.684-15.044-34.464-31.536
			c-4.479-12.78-5.952-26.099-3.237-39.525c2.792-13.805,5.403-27.692,9.156-41.248c8.314-30.026,17.419-59.832,25.955-89.798
			c5.08-17.833,9.76-35.782,14.468-53.719c1.127-4.292,1.951-8.714,2.373-13.127c0.475-4.97,3.77-10.873-0.912-14.746
			c-5.505-4.554-11.017-0.881-16.206,2.306c-3.134,1.925-6.579,3.491-10.07,4.666c-22.313,7.51-40.738,21.074-57.753,36.839
			c-13.041,12.083-25.946,24.244-39.521,35.81c-22.591,19.249-41.592,42.308-60.517,65.217c-2.039,2.468-1.202,6.351,1.564,7.341
			c4.864,1.741,9.82,3.226,14.735,4.826c9.349,3.042,17.555,7.944,24.326,15.117c7.839,8.304,6.749,21.01-2.941,26.832
			c-6.294,3.781-13.187,6.885-20.189,9.102c-14.135,4.474-28.469,8.358-42.826,12.081c-20.095,5.212-40.349,9.817-60.417,15.132
			c-15.871,4.203-30.707,10.644-43.902,20.867c-18.014,13.957-38.632,21.191-61.36,24.073c-33.19,4.21-66.38,7.497-99.85,7.963
			C404.44,1024.421,374.747,1025.173,331.049,1026.059z M807.754,593.649c-0.421-11.119-0.53-22.262-1.367-33.35
			c-0.612-8.115-2.021-16.184-3.348-24.228c-14.866-90.151-56.529-165.48-128.551-221.818
			c-85.62-66.973-182.118-90.236-288.914-63.588c-12.919,3.224-25.573,7.496-38.382,11.175
			c-30.057,8.633-58.642,20.774-86.227,35.458c-11.881,6.324-22.749,13.895-32.708,22.898
			c-72.084,65.158-112.365,146.579-121.38,242.866c-6.582,70.31,6.245,137.865,39.801,200.189
			c60.735,112.804,155.323,177.17,283.094,189.561c64.956,6.299,126.888-7.952,184.918-38.092
			C739.722,849.778,808.701,719.856,807.754,593.649z M999.457,918.72c-7.219-0.543-16.195-0.512-24.898-2.041
			c-12.604-2.214-21.185-9.894-25.844-21.996c-3.596-9.339-3.846-18.922-2.254-28.521c1.333-8.035,3.078-16.075,5.5-23.844
			c7.282-23.365,14.754-46.678,22.574-69.868c12.123-35.952,22.084-72.365,26.165-110.231c1.129-10.476,1.179-20.721-1.728-30.897
			c-2.681-9.386-8.606-15.671-18.224-17.483c-7.975-1.503-16.207-3.241-24.2-2.762c-30.06,1.8-58.391,9.955-84.475,25.367
			c-14.963,8.84-27.188,20.492-36.988,34.817c-6.932,10.134-8.891,21.683-9.928,33.503c-0.05,0.567,2.438,2.134,2.917,1.849
			c4.405-2.629,8.592-5.62,12.911-8.398c6.216-3.998,12.116-8.75,18.802-11.713c36.676-16.258,57.169,9.193,61.211,35.743
			c0.334,2.191,0.504,4.466,0.321,6.665c-0.739,8.849-0.987,17.806-2.609,26.501c-6.403,34.338-16.956,67.613-26.437,101.169
			c-7.662,27.119-15.029,54.34-21.649,81.727c-2.231,9.232-2.661,19.156-2.237,28.688c0.321,7.218,2.452,14.681,5.305,21.385
			c4.247,9.979,11.961,16.639,22.922,19.386c10.184,2.553,20.364,3.772,30.865,3.123c36.312-2.245,69.593-14.17,101.263-31.336
			c4.633-2.511,8.034-5.988,10.89-10.694c8.846-14.576,18.401-28.721,27.689-43.028c1.211-1.866,2.527-3.664,3.708-5.549
			c2.452-3.913,0.781-8.138-3.401-7.978c-9.623,0.368-19.258,0.844-28.839,1.778C1026.241,915.307,1013.738,917.012,999.457,918.72z
			"/>
		<path fill="#3A3A3A" d="M358.369,1095.906c-15.195,2.659-29.949,0.346-44.713-0.713c-4.396-0.315-8.836-1.067-13.079-2.25
			c-14.376-4.006-17.985-10.425-14.513-24.593c1.342-5.477,4.506-9.57,9.542-11.494c8.274-3.161,16.642-6.609,25.289-8.14
			c14.56-2.578,29.328-4.656,44.083-5.339c38.504-1.783,77.045-2.8,115.577-3.915c20.011-0.579,39.933-1.379,59.77-4.73
			c26.53-4.482,51.86-11.837,75.311-25.434c25.943-15.042,54.061-23.925,83.804-27.648c1.454-0.182,2.958-0.022,4.436,0.054
			c3.238,0.166,6.682,3.698,7.202,7.35c0.453,3.176-0.339,6.362-3.126,7.676c-5.315,2.505-10.858,4.766-16.54,6.208
			c-12.608,3.201-23.524,8.893-31.581,19.336c-5.61,7.272-13.26,11.732-21.243,15.745c-29.22,14.691-59.715,25.92-91.269,34.548
			c-34.462,9.423-69.703,13.898-105.065,17.692C414.256,1093.264,386.294,1097.041,358.369,1095.906z"/>
		<path fill="#3A3A3A" d="M451.841,115.589c2.392,0.484,6.387,0.484,9.434,2.183c2.118,1.181,4.113,4.757,3.99,7.152
			c-0.117,2.283-2.741,5.948-4.797,6.363c-9.393,1.896-19.091,2.298-28.467,4.254c-76.917,16.045-144.86,51.304-207.641,97.511
			c-24.559,18.076-47.464,37.974-67.526,61.029c-2.918,3.354-5.73,6.906-9.139,9.697c-3.586,2.936-5.057,9.566-11.846,7.451
			c-1.642-5.81,2.353-9.901,5.072-13.852c8.388-12.19,16.697-24.581,26.454-35.643c10.26-11.631,21.455-22.676,33.454-32.495
			c67.695-55.392,143.925-93.412,229.894-111.129c3.623-0.747,7.294-1.296,10.966-1.756
			C444.626,115.987,447.599,115.896,451.841,115.589z"/>
		<path fill="#3A3A3A" d="M226.801,158.43c-0.787-0.842-2.143-1.707-2.561-2.901c-0.447-1.277-0.52-3.168,0.132-4.261
			c2.615-4.384,4.862-9.341,8.524-12.689c23.078-21.099,48.949-37.7,79.093-46.957c2.764-0.849,5.764-1.119,8.674-1.259
			c4.061-0.197,8.303,3.557,9.442,7.96c1.035,4.003-1.246,9.39-4.817,11.363c-0.643,0.355-1.272,0.766-1.957,1.01
			c-29.369,10.462-55.118,27.886-82.221,42.707c-3.221,1.761-6.465,3.515-9.837,4.944C230.045,158.867,228.41,158.43,226.801,158.43
			z"/>
		<path fill="#3A3A3A" d="M527.244,1109.645c-9.365-0.626-15.255-0.895-21.102-1.541c-0.912-0.101-2.241-1.901-2.281-2.957
			c-0.046-1.192,0.843-2.967,1.861-3.545c2.552-1.448,5.319-2.988,8.155-3.391c16.828-2.389,33.693-4.532,50.569-6.565
			c2.083-0.251,4.41,0.362,6.421,1.116c1.116,0.418,2.587,2.001,2.532,2.982c-0.11,1.973-0.658,4.381-1.951,5.703
			c-1.407,1.438-3.794,2.308-5.877,2.628C551.713,1106.209,537.822,1108.129,527.244,1109.645z"/>
		<path fill="#3A3A3A" d="M454.628,904.868c-10.289-0.998-20.628-1.652-30.849-3.127c-5.913-0.853-8.929-4.965-8.932-10.96
			c-0.003-5.905-0.136-11.953,1.019-17.691c9.494-47.17,18.181-94.519,34.402-140.084c7.768-21.82,17.716-42.314,31.155-61.137
			c2.152-3.013,4.17-6.146,6.558-8.962c9.104-10.736,20.788-13.914,34.071-10.318c13.08,3.541,24.825,10.033,34.296,19.768
			c8.767,9.012,17.179,18.437,25.047,28.242c12.054,15.024,23.311,30.685,35.271,45.787c11.951,15.091,24.367,29.814,36.544,44.728
			c3.277,4.013,6.728,7.933,9.566,12.246c6.509,9.892,4.425,18.196-5.651,24.309c-7.587,4.602-15.168,9.214-22.681,13.934
			c-8.783,5.518-17.563,11.047-26.216,16.766c-31.399,20.752-65.981,33.377-102.833,39.965
			C488.649,901.329,471.923,905.021,454.628,904.868z M452.146,887.16c20.9-0.192,41.222-4.506,61.538-8.775
			c38.213-8.029,73.281-23.538,105.88-44.842c3.102-2.027,6.142-4.16,9.111-6.377c5.354-3.998,6.71-7.247,4.767-10.964
			c-1.951-3.732-6.231-4.274-11.565-1.185c-7.058,4.087-13.962,8.438-21.019,12.527c-30.375,17.602-62.594,30.646-96.953,37.937
			c-10.823,2.297-21.984,3.306-33.048,4.037c-5.814,0.385-11.794-0.854-17.616-1.848c-2.914-0.497-5.73-2.486-5.381-5.849
			c0.19-1.833,1.907-4.364,3.56-5.03c5.466-2.203,11.157-3.922,16.867-5.43c21.485-5.679,43.204-10.557,64.474-16.941
			c27.877-8.369,53.374-22.077,77.778-37.789c4.922-3.169,5.646-8.273,2.314-13.559c-1.655-2.626-4.128-4.54-7.37-3.271
			c-3.422,1.339-6.66,3.189-9.883,4.987c-11.008,6.141-21.852,12.586-32.98,18.499c-25.74,13.676-52.954,23.146-81.855,27.357
			c-4.257,0.62-8.712-0.053-13.068-0.259c-0.437-0.021-1.01-0.899-1.196-1.482c-0.204-0.637-0.258-1.905,0.01-2.024
			c4.703-2.081,9.311-4.612,14.239-5.91c38.379-10.112,73.425-27.672,107.419-47.62c2.529-1.484,5.013-3.196,7.111-5.222
			c2.434-2.351,2.222-5.234,0.359-8.011c-4.071-6.066-7.57-7.344-12.816-4.481c-2.6,1.419-5.088,3.045-7.61,4.606
			c-35.801,22.166-73.961,37.645-116.438,40.51c-7.371,0.497-10.402,4.659-11.83,10.943c-4.106,18.063-7.849,36.214-12.271,54.199
			C429.53,886.8,432.919,887.297,452.146,887.16z M461.875,790c0.035-0.005,2.998-0.21,5.88-0.808
			c37.315-7.738,72.212-21.551,104.532-41.79c1.249-0.782,2.424-1.712,3.526-2.694c2.495-2.225,3.003-4.786,1.343-7.82
			c-4.505-8.228-8.31-9.555-15.862-5.264c-3.214,1.827-6.271,3.931-9.484,5.759c-22.716,12.917-46.658,22.373-72.761,25.744
			c-5.131,0.663-10.295,1.305-15.313,2.501c-1.897,0.452-4.25,2.1-4.965,3.803c-1.985,4.73-3.355,9.739-4.694,14.712
			C453.341,786.872,456.318,790.265,461.875,790z M556.604,713.644c-0.437-1.936-0.433-3.515-1.122-4.686
			c-2.68-4.555-5.948-5.643-11.217-3.363c-19.763,8.554-39.834,15.857-61.687,16.674c-4.904,0.183-8.501,2.831-10.209,7.253
			c-2.381,6.163-4.314,12.511-6.184,18.855c-0.797,2.701,1.408,3.936,3.529,4.558c1.352,0.397,2.991,0.409,4.363,0.057
			c28.149-7.228,54.421-18.763,78.704-34.737C554.466,717.146,555.488,715.027,556.604,713.644z M526.89,683.171
			c-0.258-0.692-0.328-1.572-0.803-2.048c-7.982-7.996-18.567-8.14-25.01,0.023c-4.1,5.194-7.626,10.859-11.13,16.488
			c-0.497,0.799,0.471,2.64,1.027,3.88c0.162,0.361,1.398,0.63,1.886,0.4c10.646-5.038,21.283-10.098,31.83-15.339
			C525.73,686.057,526.173,684.336,526.89,683.171z"/>
		<path fill="#3A3A3A" d="M775.247,605.154c0.069,23.032-1.616,45.943-5.026,68.712c-0.535,3.571-1.827,7.125-3.332,10.429
			c-1.755,3.853-7.584,6.145-11.401,4.708c-4.154-1.563-8.196-3.428-12.261-5.221c-33.261-14.669-67.474-26.713-102.03-37.95
			c-27.465-8.931-54.582-18.94-81.792-28.644c-4.862-1.734-9.495-4.172-14.106-6.535c-11.228-5.756-15.503-15.272-14.646-27.542
			c0.691-9.893,4.288-18.761,9.622-26.922c8.204-12.551,18.421-23.299,30.902-31.622c32.682-21.796,64.81-44.46,99.274-63.49
			c14.272-7.881,28.293-16.216,42.406-24.383c10.564-6.114,14.933-5.28,22.509,4.586c8.679,11.302,14.558,24.127,19.288,37.412
			c13.017,36.557,21.369,74.017,20.605,113.113C775.172,596.253,775.247,600.704,775.247,605.154z M752.761,603.244
			c-0.736-10.06-1.442-21.157-2.379-32.235c-2.953-34.93-12.339-68.544-21.16-102.263c-0.926-3.541-2.479-6.964-4.143-10.238
			c-0.526-1.035-2.349-1.96-3.599-1.986c-7.478-0.158-14.648,7.718-13.079,14.366c1.703,7.214,3.932,14.307,5.531,21.541
			c6.575,29.762,11.415,59.739,10.787,90.377c-0.307,14.952-2.516,29.555-7.605,43.639c-0.985,2.725-2.547,5.32-4.271,7.66
			c-0.709,0.963-2.62,1.619-3.852,1.45c-1.142-0.156-2.974-1.562-3.013-2.481c-0.28-6.613-0.835-13.316-0.097-19.854
			c4.985-44.172-1.668-87.31-11.126-130.212c-1.426-6.467-5.865-8.349-11.607-5.477c-9.898,4.95-11.045,7.081-8.395,17.02
			c7.098,26.622,10.662,53.823,13.276,81.163c1.495,15.641-0.449,31.147-3.275,46.5c-0.788,4.283-2.697,8.475-4.763,12.353
			c-0.88,1.651-3.594,3.424-5.268,3.241c-1.644-0.179-4.023-2.588-4.335-4.331c-0.909-5.072-1.205-10.297-1.28-15.469
			c-0.485-33.467-4.031-66.641-9.537-99.616c-0.97-5.808-2.783-11.49-4.432-17.165c-0.723-2.49-4.741-2.972-7.708-1.421
			c-4.318,2.257-7.023,5.561-6.553,10.55c0.346,3.669,1.273,7.295,2.097,10.905c5.477,23.974,8.406,48.229,7.86,72.838
			c-0.131,5.919-0.671,11.862-1.539,17.717c-0.42,2.834-1.666,5.732-3.24,8.142c-1.062,1.626-3.348,3.36-5.093,3.366
			c-1.623,0.006-3.936-1.883-4.725-3.525c-1.243-2.585-1.88-5.638-2.036-8.532c-0.438-8.148-0.698-16.318-0.671-24.478
			c0.068-20.149-3.296-39.888-6.896-59.595c-0.901-4.931-4.175-8.667-6.394-7.647c-3.258,1.497-6.754,3.326-8.951,5.998
			c-1.584,1.927-2.025,5.592-1.583,8.249c1.946,11.695,4.907,23.236,6.548,34.966c2.47,17.656,4.607,35.452-3.426,52.502
			c-0.299,0.634-0.442,1.522-0.248,2.169c0.398,1.329,0.748,3.32,1.689,3.733c5.401,2.368,10.892,4.586,16.493,6.427
			c22.537,7.41,45.203,14.436,67.669,22.055c14.037,4.76,27.781,10.383,41.701,15.495c4.088,1.501,7.845-0.643,8.143-4.651
			C749.821,645.782,751.229,625.064,752.761,603.244z M578.077,557.545c0,7.186,0.26,10.914-0.083,14.585
			c-0.271,2.906-1.084,5.808-2.007,8.596c-1.888,5.706-7.078,7.769-12.38,5.092c-0.646-0.326-1.161-0.902-1.794-1.262
			c-8.125-4.622-8.336-4.63-11.899,1.426c-1.875,3.189-3.686,6.436-5.233,9.792c-1.438,3.119-0.296,5.934,2.523,7.509
			c14.983,8.374,31.37,12.944,47.846,17.2c2.667,0.689,5.261-2.499,5.011-5.751c-0.853-11.068-1.395-22.171-2.62-33.197
			c-1.307-11.761-3.153-23.467-4.979-35.164c-0.614-3.936-5.123-5.274-8.649-2.978c-3.242,2.111-5.755,4.787-5.994,8.763
			C577.642,555.094,578.109,558.07,578.077,557.545z"/>
		<path fill="#3A3A3A" d="M435.458,291.031c29.299-1.345,57.598,3.031,84.155,16.135c7.535,3.718,13.471,13.125,12.636,21.319
			c-0.282,2.774-1.509,6.166-3.498,7.92c-6.693,5.902-7.812,13.483-9.28,21.732c-7.268,40.855-17.209,81.136-27.753,121.256
			c-1.487,5.659-3.934,11.221-6.834,16.317c-3.896,6.846-10.195,10.397-18.281,10.79c-11.476,0.557-22.295-1.865-31.797-8.126
			c-18.531-12.21-36.931-24.437-51.229-42.119c-27.51-34.021-53.485-69.168-79.298-104.461c-4.336-5.928-9.396-11.344-14.307-16.83
			c-4.646-5.189-4.704-12.916,0.629-17.62c2.706-2.387,5.96-4.598,9.352-5.679c11.264-3.59,22.523-7.667,34.11-9.668
			c24.801-4.282,49.766-7.701,74.748-10.793C417.565,290.121,426.568,291.031,435.458,291.031z M483.145,343.619
			c9.048,0.847,11.871-1.221,13.867-7.887c0.423-1.413,0.77-2.861,1.013-4.315c0.676-4.044-1.246-7.726-4.889-8.838
			c-3.519-1.074-7.11-2.013-10.734-2.625c-44.331-7.487-88.488-5.61-132.476,2.805c-9.435,1.805-18.804,4.009-28.121,6.358
			c-5.435,1.37-7.099,5.642-3.864,10.017c11.44,15.47,22.939,30.902,34.734,46.102c5.41,6.972,7.377,7.374,14.915,3.32
			c10.585-5.692,21.773-9.014,33.586-10.894c24.307-3.869,48.565-4.594,72.868-0.14c2.897,0.531,5.837,0.887,8.773,1.128
			c3.588,0.295,6.689-2.394,7.596-6.518c0.475-2.163,0.861-4.363,1.056-6.567c0.485-5.48-1.528-8.768-6.607-9.795
			c-8.689-1.756-17.404-3.944-26.2-4.502c-29.077-1.847-57.649,1.203-85.372,10.684c-6.283,2.149-12.621,4.156-19.009,5.961
			c-0.93,0.263-2.327-0.906-3.386-1.599c-0.138-0.09,0.255-1.578,0.753-1.955c2.924-2.216,5.75-4.685,8.978-6.358
			c34.772-18.017,71.709-22.13,110.051-16.712C475.797,342.011,480.853,343.184,483.145,343.619z M440.868,385.494
			c-22.497,0.76-40.246,1.278-57.655,5.598c-20.027,4.969-20.759,7.176-7.625,23.98c8.845,11.316,9.878,8.431,18.067,4.178
			c7.779-4.04,16.332-6.729,24.745-9.378c14.34-4.514,29.23-4.175,44.051-4.026c5.167,0.052,10.335,0.354,15.5,0.299
			c3.306-0.036,6.376-3.518,7.005-7.44c0.643-4.003-1.215-7.714-4.872-8.796c-4.231-1.252-8.54-2.628-12.895-2.989
			C456.87,386.065,446.504,385.776,440.868,385.494z M458.031,441.513c0.371,0,4.812,0.084,9.247-0.019
			c7.389-0.172,12.913-8.383,10.431-15.65c-0.425-1.244-1.671-2.535-2.87-3.115c-1.957-0.946-4.159-1.721-6.309-1.882
			c-24.6-1.843-48.59,1.87-72.253,8.271c-2.592,0.701-3.672,5.088-1.817,7.469c2.72,3.491,5.541,6.919,8.531,10.178
			c2.714,2.959,6.142,4.104,9.971,2.278C425.955,442.843,439.693,440.671,458.031,441.513z M469.855,465.084
			c0.716-4.87-2.001-8.625-7.474-8.453c-11.675,0.369-23.331,1.429-34.976,2.43c-0.85,0.073-2.075,1.913-2.171,3.015
			c-0.11,1.264,0.454,3.147,1.402,3.851c5.872,4.365,11.609,9.072,17.997,12.551C459.965,486.827,467.256,482.755,469.855,465.084z"
			/>
		<path fill="#3A3A3A" d="M143.587,601.215c0-9.614-0.25-19.237,0.121-28.837c0.153-3.958,3.012-6.966,7.003-7.527
			c5.798-0.815,11.78-1.773,17.537-1.199c42.712,4.253,85.487,8.172,127.737,16.011c18.896,3.506,37.588,8.097,56.411,12.009
			c8.646,1.797,16.956,4.635,26.011,5.225c20.312,1.323,31.934,20.971,24.23,40.229c-2.163,5.407-5.365,10.694-9.188,15.081
			c-8.742,10.033-17.793,19.859-27.38,29.081c-22.505,21.648-47.565,40.19-73.977,56.654
			c-24.484,15.262-49.661,29.483-75.047,43.209c-25.182,13.616-25.001,6.173-34.502-12.941c-1.636-3.292-2.129-7.179-3.909-10.367
			c-21.034-37.672-28.026-79.303-33.987-121.15c-1.664-11.684-1.487-23.63-2.154-35.456
			C142.857,601.229,143.222,601.222,143.587,601.215z M157.775,606.014c0.117-0.004,0.235-0.008,0.352-0.013
			c0.307,5.929,0.446,11.873,0.948,17.786c3.95,46.513,16.734,90.267,40.954,130.42c3.725,6.176,6.622,7.235,12.631,4.095
			c39.509-20.646,78.104-42.839,113.114-70.613c14.508-11.51,28.099-24.198,41.805-36.683c4.905-4.468,9.067-9.795,13.267-14.975
			c1.829-2.256,3.036-5.063,4.284-7.733c1.975-4.226,0.047-9.705-4.485-10.924c-16.436-4.419-32.93-8.654-49.51-12.493
			c-6.105-1.414-9.427,2.473-8.418,9.349c1.182,8.062,3.14,16.012,4.257,24.08c1.108,8,1.616,16.085,2.292,24.14
			c0.052,0.62-0.576,1.796-1.018,1.864c-1.37,0.207-3.385,0.583-4.104-0.143c-2.553-2.576-5.181-5.309-6.865-8.471
			c-7.061-13.253-10.623-27.629-12.7-42.406c-0.413-2.935-0.402-5.93-0.848-8.857c-0.474-3.11-4.348-6.025-8.163-6.448
			c-3.381-0.374-7.039,2.959-6.839,7.01c0.365,7.371,0.251,14.978,2.105,22.021c3.957,15.034,9.133,29.745,13.616,44.645
			c1.466,4.873,2.38,9.916,3.409,14.909c0.109,0.528-0.574,1.463-1.137,1.815c-0.565,0.354-1.74,0.568-2.129,0.236
			c-3.311-2.828-7.179-5.321-9.621-8.799c-13.518-19.25-20.902-40.788-22.68-64.228c-0.392-5.169-0.268-10.381-0.746-15.539
			c-0.472-5.096-5.812-8.149-11.781-7.082c-3.293,0.589-5.895,4.104-5.552,8.411c1.534,19.247,3.89,38.379,10.187,56.761
			c3.363,9.816,7.109,19.5,10.656,29.254c1.517,4.171,3.289,8.291,4.29,12.586c0.409,1.753-0.92,3.91-1.458,5.883
			c-1.362-0.492-3.071-0.625-4.021-1.543c-2.642-2.555-5.308-5.206-7.361-8.229c-9.666-14.23-16.653-29.676-20.986-46.379
			c-3.754-14.473-4.938-29.221-5.872-44.048c-0.276-4.384-1.092-8.766-2.035-13.067c-0.64-2.92-5.31-5.134-9.206-4.637
			c-3.274,0.419-5.404,2.479-5.772,5.676c-1.366,11.86-0.864,23.671,1.071,35.466c2.769,16.883,6.979,33.367,12.746,49.474
			c1.226,3.425,1.973,7.031,2.775,10.59c0.12,0.534-0.554,1.426-1.099,1.838c-0.208,0.157-1.303-0.427-1.618-0.916
			c-1.588-2.464-3.307-4.892-4.52-7.542c-10.962-23.949-16.041-49.241-17.062-75.453c-0.23-5.906-0.484-11.826-1.139-17.693
			c-0.413-3.696-5.431-6.31-10.627-6.082c-3.66,0.16-6.829,3.313-6.949,7.238c-0.113,3.695-0.298,7.448,0.18,11.092
			c3.276,25.007,6.854,49.961,14.327,74.169c2.843,9.208,5.399,18.505,8.088,27.761c0.826,2.842,2.021,5.642,2.346,8.54
			c0.179,1.597-1.099,3.357-1.719,5.043c-1.13-0.93-2.731-1.628-3.32-2.824c-14.506-29.493-24.748-60.343-28.778-93.06
			c-1.45-11.771-2.218-23.624-3.41-35.428c-0.408-4.039-2.669-6.816-6.69-7.819c-4.308-1.074-8.636-2.109-13.002-2.902
			c-3.581-0.65-7.357,2.547-7.316,6.485C157.003,589.756,157.467,597.884,157.775,606.014z"/>
		<path fill="#3A3A3A" d="M517.836,444.122c1.69-8.118,3.473-19.056,6.281-29.725c7.886-29.965,16.128-59.837,24.414-89.694
			c1.167-4.206,3.1-8.272,5.209-12.112c0.972-1.769,3.103-3.027,4.922-4.18c3.828-2.426,10.042,0.584,10.146,4.827
			c0.054,2.194,0.282,4.472-0.179,6.578c-9.174,41.891-21.417,82.847-37.774,122.519c-1.665,4.038-4.044,7.815-6.425,11.498
			c-0.516,0.798-2.715,1.241-3.689,0.816c-1.089-0.475-1.964-2.024-2.384-3.288C517.906,450.009,518.097,448.443,517.836,444.122z"
			/>
		<path fill="#3A3A3A" d="M258.586,821.666c-1.261-0.694-1.973-0.894-2.375-1.36c-0.407-0.472-0.888-1.415-0.681-1.796
			c1.384-2.548,2.534-5.401,4.512-7.419c12.919-13.186,25.499-26.772,39.191-39.115c25.243-22.756,51.068-44.873,76.88-66.987
			c8.962-7.679,18.521-14.678,28.028-21.688c1.48-1.091,4.196-0.915,6.242-0.627c0.815,0.115,2.218,2.68,1.893,3.181
			c-1.951,3.004-3.958,6.151-6.615,8.489c-44.939,39.534-89.955,78.979-135.027,118.36
			C266.791,816.059,262.433,818.826,258.586,821.666z"/>
		<path fill="#3A3A3A" d="M255.885,355.244c0.717,0.194,1.616,0.177,2.118,0.614c2.764,2.407,5.741,4.665,8.083,7.447
			c25.33,30.093,50.66,60.187,75.732,90.494c6.117,7.395,11.308,15.557,16.859,23.413c0.33,0.466,0.227,1.9,0.065,1.946
			c-1.264,0.353-3.148,1.126-3.809,0.561c-3.931-3.354-7.77-6.859-11.301-10.631c-29.441-31.455-56.46-64.973-83.457-98.499
			c-2.683-3.332-4.295-7.596-5.989-11.603C253.823,358.13,255.269,356.51,255.885,355.244z"/>
		<path fill="#3A3A3A" d="M436.784,559.697c1.426,1.29,5.013,3.12,6.275,5.978c2.459,5.567,1.389,11.258-2.7,16.177
			c-3.825,4.601-11.938,4.586-15.186-0.487c-3.302-5.157-3.86-10.793-1.301-16.557C425.263,561.675,430.464,559.162,436.784,559.697
			z"/>
		<path fill="#3A3A3A" d="M454.316,646.696c-5.442-0.33-8.864-4.576-8.524-10.575c0.328-5.776,4.881-10.881,9.176-10.288
			c5.583,0.771,10.53,6.768,10.279,12.461C465.031,643.203,460.035,647.043,454.316,646.696z"/>
		<path fill="#3A3A3A" d="M505.793,623.741c-0.445,4.951-3.501,7.986-8.136,8.079c-4.437,0.089-7.257-3.593-6.727-8.786
			c0.502-4.929,3.774-8.31,7.987-8.254C503.119,614.835,506.23,618.889,505.793,623.741z"/>
		<path fill="#3A3A3A" d="M497.489,563.786c-1.359,2.92-2.037,5.04-3.235,6.806c-2.251,3.316-6.854,3.109-9.184-0.276
			c-0.829-1.205-1.734-2.468-2.124-3.841c-0.805-2.835-1.467-5.83,1.309-8.104c2.491-2.04,5.492-2.746,8.07-0.763
			C494.441,559.237,495.86,561.774,497.489,563.786z"/>
		<path fill="#3A3A3A" d="M945.056,628.323c14.433-1.541,23.938,1.989,30.573,21.858c3.387,10.144,4.362,20.33,1.821,30.652
			c-5.134,20.853-9.901,41.832-16.046,62.393c-8.061,26.973-17.292,53.596-26.059,80.356c-1.15,3.51-2.417,6.995-3.872,10.387
			c-0.552,1.286-1.787,2.28-2.711,3.407c-0.647-1.148-1.592-2.232-1.862-3.462c-0.308-1.407,0.2-2.98-0.028-4.42
			c-0.543-3.439,2.722-19.502,4.696-22.299c2.045-2.897,1.392-7.13-1.703-9.691c-1.669-1.381-3.823-2.215-5.359-3.707
			c-2.049-1.991-1.006-6.403,1.667-7.531c2.013-0.849,4.247-1.185,6.238-2.072c2.584-1.15,6.036-1.992,7.328-4.076
			c3.081-4.97,5.833-10.446,4.796-16.672c-0.186-1.118-1.765-2.343-2.982-2.874c-1.954-0.853-4.176-1.075-6.21-1.779
			c-0.524-0.182-1.011-1.149-1.073-1.798c-0.065-0.671,0.2-1.729,0.684-2.028c1.242-0.766,2.637-1.479,4.056-1.732
			c11.536-2.054,15.307-10.382,16.909-20.578c0.457-2.906-1.251-4.526-5.454-4.885c-2.126-0.182-4.27-0.239-6.368-0.58
			c-0.498-0.081-1.072-1.032-1.203-1.667c-0.138-0.67-0.018-1.898,0.382-2.098c4.608-2.307,9.296-4.454,13.951-6.667
			c3.736-1.775,5.006-5.16,5.849-8.883c1.524-6.731-1.469-9.648-8.404-8.268c-5.003,0.995-10.042,1.821-15.085,2.587
			c-0.554,0.084-1.743-0.689-1.777-1.131c-0.101-1.288-0.26-3.114,0.478-3.838c6.12-6.003,14.501-7.25,22.193-9.605
			c6.81-2.085,9.366-6.556,10.39-12.827c1.617-9.901-1.618-19.201-4.403-28.275c-3.629-11.825-16.204-13.878-24.271-4.347
			c-6.247,7.38-12.139,15.038-20.926,19.598c-0.998,0.518-3.07,0.194-3.901-0.559c-0.744-0.675-1.055-2.82-0.534-3.731
			c2.564-4.49,5.507-8.762,8.198-13.183c0.291-0.478,0.072-1.731-0.357-2.088c-1.041-0.867-2.314-1.929-3.548-2.004
			c-4.585-0.279-8.902,0.841-12.155,4.287c-3.049,3.23-5.672,6.863-8.735,10.079c-5.34,5.606-7.342,5.417-13.531-0.739
			c-1.013-1.007-1.95-2.129-3.095-2.96c-6.547-4.751-6.699-5.389-1.265-7.844C902.147,634.084,922.729,628.416,945.056,628.323z"/>
		<path fill="#3A3A3A" d="M971.974,966.052c0-2.198,0.293-4.452-0.109-6.574c-0.244-1.288-1.334-2.686-2.439-3.497
			c-6.328-4.641-15.553-4.123-20.101,1.072c-4.365,4.985-8.598,10.085-12.962,15.071c-0.425,0.485-1.838,0.889-1.98,0.705
			c-0.795-1.033-2.156-2.589-1.841-3.365c2.477-6.108,5.308-12.07,7.994-18.094c2.245-5.034-3.983-14.592-9.615-14.607
			c-1.356-0.004-3.018,0.372-4.018,1.202c-3.979,3.298-7.591,7.051-11.663,10.219c-2.263,1.76-5.055,3.217-7.823,3.815
			c-1.759,0.38-4.635-0.502-5.689-1.85c-1.094-1.4-1.572-4.807-0.628-6.015c4.507-5.768,9.21-11.496,14.579-16.441
			c4.731-4.356,7.339-9.003,6.933-15.454c-0.081-1.278,1.33-3.824,1.631-3.762c2.003,0.417,4.39,0.909,5.7,2.284
			c1.996,2.095,3.396,4.834,4.745,7.456c9.042,17.574,24.204,25.144,43.156,26.599c2.939,0.225,5.92,0.236,8.792,0.803
			c0.91,0.18,2.386,2.204,2.147,2.782c-3.643,8.81-7.448,17.556-11.473,26.198c-0.412,0.884-2.624,1.574-3.724,1.289
			c-0.889-0.231-1.764-2.01-1.933-3.204c-0.308-2.171-0.087-4.417-0.087-6.631C971.7,966.052,971.837,966.052,971.974,966.052z"/>
		<path fill="#3A3A3A" d="M896.185,969.734c1.308,0.425,2.973,0.493,3.841,1.359c1.442,1.44,2.782,3.251,3.439,5.157
			c1.805,5.235,0.535,9.995-2.638,11.39c-2.668,1.173-7.348-0.941-8.94-4.038c-2.705-5.263-1.783-10.929,2.232-13.341
			C894.702,969.909,895.491,969.902,896.185,969.734z"/>
	</g>
</g>
</svg>
