<?xml version="1.0" encoding="utf-8"?>
<!-- Designed by Vexels.com - 2019 All Rights Reserved - https://vexels.com/terms-and-conditions/  -->
<svg version="1.1" id="Capa_1" xmlns="http://www.w3.org/2000/svg" xmlns:xlink="http://www.w3.org/1999/xlink" x="0px" y="0px"
	 viewBox="0 0 1200 1200" enable-background="new 0 0 1200 1200" xml:space="preserve">
<g>
	<g>
		<g>
			<path fill="#F6E28D" d="M1069.128,849.854c0,82.883-33.595,157.919-87.911,212.235C926.902,1116.405,851.865,1150,768.982,1150
				s-157.92-33.595-212.235-87.911c-54.316-54.316-87.911-129.352-87.911-212.235s33.595-157.92,87.911-212.235
				c54.316-54.316,129.352-87.911,212.235-87.911s157.919,33.595,212.235,87.911
				C1035.533,691.934,1069.128,766.971,1069.128,849.854z"/>
		</g>
	</g>
	<g>
		<g>
			<path fill="#FFFFFF" d="M867.536,384.64c-2.284,0-4.537,0.09-6.768,0.27c-2.231,0.18-4.44,0.451-6.633,0.811
				c0.451-3.125,0.796-6.28,1.029-9.465c0.233-3.185,0.353-6.4,0.353-9.646c0-36.509-14.799-69.563-38.725-93.489
				s-56.98-38.725-93.489-38.725c-17.458,0-34.12,3.38-49.37,9.525s-29.087,15.054-40.896,26.112
				c-1.683-41.648-19.682-79.103-47.778-106.147s-66.288-43.676-108.356-43.676c-43.15,0-82.213,17.488-110.489,45.764
				s-45.764,67.339-45.764,110.489c0,11.839,1.322,23.363,3.816,34.436s6.16,21.695,10.848,31.732
				c-0.421-0.03-0.856-0.045-1.3-0.053c-0.443-0.008-0.894-0.008-1.345-0.008c-14.934,0-28.456,6.055-38.245,15.843
				s-15.843,23.31-15.843,38.245c0,2.194,0.135,4.372,0.391,6.513c0.255,2.141,0.631,4.244,1.112,6.288
				c-17.428,2.524-32.828,11.283-43.871,23.949c-11.043,12.666-17.729,29.238-17.729,47.387c0,19.922,8.068,37.952,21.117,51
				c13.049,13.049,31.078,21.117,51,21.117c3.936,0,7.798-0.316,11.561-0.924c3.764-0.609,7.43-1.51,10.975-2.682
				c9.706,22.296,25.692,41.227,45.719,54.584s44.097,21.139,69.969,21.139c19.532,0,38.027-4.432,54.539-12.35
				c16.512-7.918,31.04-19.321,42.639-33.264c13.642,34.466,37.291,63.899,67.362,84.715
				c30.071,20.816,66.565,33.016,105.899,33.016c44.412,0,85.188-15.535,117.198-41.467c32.009-25.932,55.252-62.261,64.597-103.849
				c20.012-3.245,37.666-13.552,50.317-28.276s20.298-33.865,20.298-54.779c0-23.228-9.42-44.262-24.648-59.489
				C911.798,394.06,890.764,384.64,867.536,384.64z"/>
		</g>
		<g>
			<path d="M699.264,701.209c-38.207,0-74.258-11.152-104.545-31.003c-30.287-19.852-54.81-48.403-69.962-83.203
				c-12.348,13.414-27.172,23.937-43.488,31.106c-16.316,7.169-34.125,10.984-52.445,10.984c-25.328,0-49.465-7.316-69.942-20.332
				c-20.477-13.016-37.293-31.732-47.979-54.531c-3.29,0.912-6.638,1.599-10.028,2.057c-3.39,0.459-6.821,0.689-10.276,0.689
				c-21.002,0-40.047-8.543-53.841-22.338c-13.794-13.794-22.337-32.839-22.337-53.842c0-18.074,6.471-34.949,17.316-48.195
				c10.844-13.246,26.062-22.865,43.556-26.426c-0.257-1.583-0.45-3.172-0.579-4.76s-0.194-3.175-0.194-4.755
				c0-15.431,6.042-29.477,15.884-39.898c9.842-10.42,23.484-17.215,38.685-18.142c-4.15-9.855-7.275-20.001-9.363-30.381
				s-3.138-20.991-3.138-31.776c0-44.199,17.979-84.277,47.008-113.306c29.029-29.029,69.108-47.008,113.308-47.008
				c41.77,0,79.8,15.802,108.327,41.877s47.553,62.421,51.313,103.509c12.185-10.089,25.901-17.889,40.558-23.167
				c14.657-5.278,30.254-8.034,46.202-8.034c37.571,0,71.64,15.283,96.316,39.959c24.676,24.676,39.959,58.745,39.959,96.316
				c0,2.385-0.064,4.783-0.191,7.186c-0.127,2.403-0.318,4.811-0.572,7.215c1.441-0.144,2.891-0.252,4.346-0.324
				c1.455-0.072,2.915-0.108,4.376-0.108c24.317,0,46.367,9.891,62.337,25.862s25.862,38.02,25.862,62.336
				c0,21.287-7.459,40.927-20.104,56.248c-12.645,15.321-30.477,26.324-51.224,30.337c-10.162,42.337-34.599,78.799-67.42,104.676
				C784.167,685.916,742.962,701.209,699.264,701.209z M527.26,571.555l1.259,3.183l1.259,3.183
				c13.846,34.981,37.4,63.772,66.901,83.819s64.95,31.348,102.584,31.348c42.267,0,82.098-14.945,113.676-40.186
				c31.578-25.241,54.902-60.777,64.156-101.96l0.3-1.34l0.3-1.34l1.355-0.22l1.355-0.22c19.47-3.157,36.272-13.046,48.205-27.082
				c11.934-14.036,19-32.219,19-51.963c0-22.077-8.981-42.096-23.481-56.595c-14.5-14.499-34.519-23.48-56.596-23.48
				c-2.152,0-4.299,0.086-6.428,0.258s-4.239,0.428-6.315,0.769l-2.735,0.449l-2.735,0.449l0.396-2.743l0.396-2.744
				c0.445-3.08,0.78-6.178,1.004-9.274c0.224-3.095,0.336-6.188,0.336-9.256c0-35.332-14.372-67.37-37.578-90.575
				s-55.244-37.578-90.575-37.578c-16.315,0-32.241,3.067-47.062,8.918s-28.536,14.487-40.43,25.624l-3.238,3.032l-3.238,3.032
				l-0.178-4.432l-0.178-4.432c-1.653-40.914-19.179-77.396-46.539-103.649s-64.552-42.278-105.536-42.278
				c-41.96,0-80.008,17.068-107.567,44.627c-27.558,27.558-44.627,65.606-44.627,107.565c0,11.238,1.201,22.277,3.587,33.044
				c2.386,10.766,5.957,21.26,10.696,31.405l1.461,3.129l1.461,3.129l-3.445-0.244l-3.445-0.244c-0.375-0.027-0.764-0.04-1.16-0.046
				s-0.798-0.005-1.198-0.003c-13.792,0-26.298,5.61-35.357,14.669c-9.058,9.059-14.669,21.565-14.669,35.357
				c0,1.972,0.117,3.957,0.35,5.94s0.582,3.965,1.044,5.931l0.509,2.157l0.509,2.157l-2.193,0.318l-2.193,0.318
				c-16.568,2.399-31.099,10.834-41.487,22.866c-10.389,12.032-16.635,27.661-16.635,44.45c0,18.763,7.632,35.778,19.955,48.101
				s29.337,19.956,48.1,19.956c3.64,0,7.248-0.286,10.8-0.854c3.552-0.568,7.047-1.419,10.462-2.548l1.76-0.581l1.76-0.581
				l0.74,1.699l0.74,1.699c9.689,22.258,25.521,40.579,45.01,53.335c19.489,12.756,42.636,19.948,66.954,19.948
				c18.216,0,35.895-4.023,51.937-11.554c16.042-7.531,30.449-18.569,42.12-32.599l2.189-2.631L527.26,571.555z"/>
		</g>
	</g>
	<g>
		<g>
			<path fill="#79D6D1" d="M315.723,546.904c15.024,0,155.983-0.598,293.185-1.196s270.648-1.196,270.648-1.196l-57.093,219.356
				L765.37,983.223H576.063H386.756l-35.516-218.16L315.723,546.904z"/>
		</g>
		<g>
			<path d="M765.37,987.285H576.063H386.756c-0.995,0-1.918-0.361-2.631-0.967c-0.713-0.606-1.217-1.458-1.377-2.44l-35.517-218.161
				l-35.517-218.161c-0.096-0.588-0.06-1.182,0.096-1.742c0.156-0.56,0.433-1.087,0.818-1.542c0.386-0.453,0.861-0.811,1.389-1.055
				c0.528-0.244,1.108-0.375,1.704-0.375c14.848,0,154.467-0.592,291.042-1.188s270.104-1.194,272.773-1.206
				c0.003,0,0.006,0,0.009,0c0.003,0,0.006,0,0.009,0c0.627,0,1.236,0.145,1.785,0.414c0.549,0.269,1.038,0.661,1.424,1.157
				c0.386,0.498,0.646,1.071,0.769,1.673c0.124,0.602,0.111,1.231-0.047,1.841L826.393,764.89L769.3,984.247
				c-0.233,0.894-0.754,1.654-1.447,2.19C767.16,986.973,766.294,987.285,765.37,987.285z M390.21,979.163h186.01h186.01
				l56.033-215.284l56.032-215.284c-26.827,0.12-150.975,0.675-275.566,1.217s-249.628,1.073-278.233,1.144l34.857,214.103
				L390.21,979.163z"/>
		</g>
	</g>
	<g>
		<g>
			<path d="M390.442,436.923c-1.066,0-2.046-0.415-2.776-1.1c-0.73-0.685-1.209-1.639-1.274-2.717
				c-0.346-5.725,0.079-11.447,1.242-17.011s3.064-10.971,5.671-16.066c8.059-15.746,21.773-26.744,37.409-31.791
				c15.635-5.047,33.192-4.144,48.936,3.912c7.684,3.933,14.363,9.259,19.775,15.666c5.412,6.408,9.558,13.898,12.175,22.16
				c0.339,1.07,0.213,2.175-0.266,3.098c-0.478,0.923-1.309,1.662-2.378,2c-1.068,0.344-2.173,0.218-3.096-0.262
				s-1.664-1.313-2.002-2.381c-2.288-7.221-5.91-13.766-10.638-19.365c-4.728-5.599-10.561-10.251-17.271-13.686
				c-13.754-7.043-29.089-7.831-42.744-3.421c-13.655,4.41-25.632,14.019-32.671,27.771c-2.277,4.448-3.936,9.169-4.952,14.029
				c-1.015,4.86-1.386,9.858-1.085,14.86c0.067,1.119-0.325,2.16-1.015,2.938s-1.675,1.292-2.795,1.36
				c-0.042,0.003-0.083,0.005-0.124,0.006C390.525,436.922,390.484,436.923,390.442,436.923z"/>
		</g>
	</g>
	<g>
		<g>
			<path d="M751.671,423.498c-0.132,0-0.265-0.006-0.398-0.02c-0.134-0.013-0.268-0.033-0.403-0.06
				c-1.1-0.22-2.006-0.865-2.582-1.73c-0.576-0.865-0.823-1.95-0.603-3.049c0.532-2.659,0.934-5.332,1.201-8s0.403-5.33,0.403-7.97
				c0-22.077-8.98-42.096-23.48-56.596c-14.499-14.5-34.518-23.481-56.595-23.481s-42.096,8.981-56.596,23.481
				c-14.5,14.5-23.481,34.519-23.481,56.596c0,2.077,0.077,4.123,0.229,6.125c0.152,2.001,0.38,3.958,0.683,5.857
				c0.175,1.108-0.114,2.182-0.724,3.023s-1.541,1.45-2.649,1.627c-1.1,0.167-2.173-0.122-3.017-0.73
				c-0.843-0.608-1.456-1.534-1.633-2.643c-0.335-2.109-0.588-4.278-0.757-6.493c-0.169-2.215-0.254-4.475-0.254-6.765
				c0-24.317,9.891-46.367,25.862-62.337s38.02-25.862,62.337-25.862c24.316,0,46.365,9.891,62.336,25.862
				s25.862,38.02,25.862,62.337c0,2.906-0.148,5.837-0.443,8.771c-0.294,2.934-0.735,5.872-1.32,8.793
				c-0.193,0.965-0.714,1.781-1.423,2.356C753.517,423.164,752.619,423.498,751.671,423.498z"/>
		</g>
	</g>
	<g>
		<g>
			<path d="M446.848,917.562c-1.017,0-1.965-0.382-2.689-1.022c-0.723-0.641-1.222-1.54-1.341-2.575l-21.034-183.299L400.75,547.366
				c-0.128-1.113,0.208-2.174,0.855-2.988c0.647-0.814,1.604-1.382,2.718-1.51c1.112-0.117,2.173,0.219,2.987,0.862
				c0.814,0.644,1.382,1.596,1.51,2.711l21.034,183.297l21.034,183.297c0.128,1.114-0.208,2.175-0.855,2.989
				c-0.647,0.814-1.604,1.381-2.718,1.508c-0.078,0.01-0.157,0.017-0.235,0.021C447.003,917.56,446.925,917.562,446.848,917.562z"/>
		</g>
	</g>
	<g>
		<g>
			<path d="M524.979,929.579c-1.121,0-2.137-0.454-2.872-1.189c-0.735-0.735-1.19-1.75-1.19-2.872V736.211V546.904
				c0-1.121,0.455-2.137,1.19-2.872c0.735-0.735,1.75-1.19,2.872-1.19s2.137,0.455,2.872,1.19c0.735,0.735,1.19,1.75,1.19,2.872
				v189.307v189.307c0,1.122-0.455,2.138-1.19,2.872C527.116,929.125,526.1,929.579,524.979,929.579z"/>
		</g>
	</g>
	<g>
		<g>
			<path d="M609.121,887.511c-0.037,0-0.073,0-0.11,0s-0.074-0.001-0.112-0.003c-1.119-0.061-2.109-0.57-2.804-1.344
				c-0.695-0.773-1.094-1.811-1.034-2.932l9.015-168.273l9.015-168.273c0.06-1.119,0.563-2.112,1.334-2.808
				c0.77-0.696,1.809-1.096,2.94-1.029c1.119,0.06,2.109,0.568,2.803,1.341c0.695,0.773,1.094,1.812,1.034,2.932l-9.015,168.273
				l-9.015,168.273c-0.057,1.083-0.534,2.044-1.265,2.734C611.177,887.091,610.193,887.511,609.121,887.511z"/>
		</g>
	</g>
	<g>
		<g>
			<path d="M693.257,929.579c-0.064,0-0.129-0.001-0.194-0.004s-0.13-0.008-0.195-0.016c-1.116-0.105-2.084-0.653-2.746-1.455
				c-0.662-0.801-1.019-1.855-0.912-2.972l18.03-189.307l18.03-189.307c0.106-1.117,0.653-2.088,1.453-2.751
				c0.8-0.663,1.854-1.019,2.975-0.907c1.116,0.106,2.084,0.655,2.746,1.456c0.662,0.801,1.019,1.855,0.912,2.972l-18.03,189.307
				l-18.03,189.307c-0.1,1.051-0.592,1.97-1.318,2.627C695.252,929.185,694.292,929.579,693.257,929.579z"/>
		</g>
	</g>
	<g>
		<g>
			<g>
				<polygon fill="#F6E28D" points="757.412,166.477 753.351,166.477 749.289,166.477 749.289,149.714 749.289,132.95 
					753.351,132.95 757.412,132.95 757.412,149.714 				"/>
			</g>
		</g>
		<g>
			<g>
				<polygon fill="#F6E28D" points="757.412,84.312 753.351,84.312 749.289,84.312 749.289,67.156 749.289,50 753.351,50 
					757.412,50 757.412,67.156 				"/>
			</g>
		</g>
		<g>
			<g>
				<polygon fill="#F6E28D" points="730.716,113.994 708.081,113.994 685.446,113.994 685.446,109.933 685.446,105.872 
					708.081,105.872 730.716,105.872 730.716,109.933 				"/>
			</g>
		</g>
		<g>
			<g>
				<polygon fill="#F6E28D" points="835.69,113.994 808.723,113.994 781.756,113.994 781.756,109.933 781.756,105.872 
					808.723,105.872 835.69,105.872 835.69,109.933 				"/>
			</g>
		</g>
	</g>
	<g>
		<g>
			<g>
				<polygon fill="#F6E28D" points="202.838,333.01 198.777,333.01 194.715,333.01 194.715,316.247 194.715,299.483 
					198.777,299.483 202.838,299.483 202.838,316.247 				"/>
			</g>
		</g>
		<g>
			<g>
				<polygon fill="#F6E28D" points="202.838,250.843 198.777,250.843 194.715,250.843 194.715,233.687 194.715,216.531 
					198.777,216.531 202.838,216.531 202.838,233.687 				"/>
			</g>
		</g>
		<g>
			<g>
				<polygon fill="#F6E28D" points="176.142,280.525 153.507,280.525 130.872,280.525 130.872,276.464 130.872,272.403 
					153.507,272.403 176.142,272.403 176.142,276.464 				"/>
			</g>
		</g>
		<g>
			<g>
				<polygon fill="#F6E28D" points="281.116,280.525 254.149,280.525 227.181,280.525 227.181,276.464 227.181,272.403 
					254.149,272.403 281.116,272.403 281.116,276.464 				"/>
			</g>
		</g>
	</g>
	<g>
		<g>
			<path fill="#6CBFB7" d="M505.787,610.001c0,10.204-4.136,19.441-10.823,26.128c-6.687,6.687-15.924,10.823-26.128,10.823
				c-10.204,0-19.441-4.136-26.128-10.823c-6.687-6.687-10.823-15.924-10.823-26.128s4.136-19.441,10.823-26.128
				c6.687-6.687,15.924-10.823,26.128-10.823c10.204,0,19.441,4.136,26.128,10.823C501.651,590.56,505.787,599.798,505.787,610.001z
				"/>
		</g>
	</g>
	<g>
		<g>
			<path fill="#6CBFB7" d="M589.412,708.869c0,5.24-2.124,9.983-5.558,13.417c-3.434,3.434-8.177,5.558-13.417,5.558
				s-9.983-2.124-13.417-5.558c-3.434-3.434-5.557-8.177-5.557-13.417c0-5.24,2.124-9.983,5.557-13.417
				c3.434-3.434,8.177-5.558,13.417-5.558s9.983,2.124,13.417,5.558S589.412,703.629,589.412,708.869z"/>
		</g>
	</g>
	<g>
		<g>
			<path fill="#6CBFB7" d="M480.558,758.802c0,4.412-1.788,8.407-4.68,11.299c-2.892,2.892-6.886,4.68-11.299,4.68
				s-8.407-1.788-11.299-4.68c-2.892-2.892-4.68-6.886-4.68-11.299c0-4.412,1.788-8.407,4.68-11.299
				c2.892-2.892,6.886-4.68,11.299-4.68s8.407,1.788,11.299,4.68C478.769,750.395,480.558,754.39,480.558,758.802z"/>
		</g>
	</g>
	<g>
		<g>
			<path fill="#6CBFB7" d="M830.09,603.011c0,12.134-4.918,23.119-12.87,31.071s-18.937,12.87-31.071,12.87
				s-23.119-4.918-31.071-12.87s-12.87-18.937-12.87-31.071s4.918-23.119,12.87-31.071s18.937-12.87,31.071-12.87
				s23.119,4.918,31.071,12.87S830.09,590.877,830.09,603.011z"/>
		</g>
	</g>
	<g>
		<g>
			<path fill="#6CBFB7" d="M780.157,788.762c0,7.402-3,14.104-7.851,18.955s-11.553,7.851-18.955,7.851s-14.104-3-18.955-7.851
				s-7.851-11.553-7.851-18.955s3-14.104,7.851-18.955s11.553-7.851,18.955-7.851s14.104,3,18.955,7.851
				S780.157,781.36,780.157,788.762z"/>
		</g>
	</g>
	<g>
		<g>
			<path fill="#6CBFB7" d="M678.248,650.946c0,2.495-1.011,4.753-2.646,6.388s-3.893,2.646-6.388,2.646s-4.753-1.011-6.388-2.646
				s-2.646-3.893-2.646-6.388s1.011-4.753,2.646-6.388s3.893-2.646,6.388-2.646s4.753,1.011,6.388,2.646
				S678.248,648.452,678.248,650.946z"/>
		</g>
	</g>
	<g>
		<g>
			<path fill="#6CBFB7" d="M678.248,804.741c0,7.158-2.901,13.637-7.592,18.328c-4.69,4.69-11.17,7.592-18.328,7.592
				s-13.637-2.901-18.328-7.592c-4.691-4.691-7.592-11.17-7.592-18.328s2.901-13.637,7.592-18.328
				c4.691-4.69,11.17-7.592,18.328-7.592s13.637,2.901,18.328,7.592C675.347,791.103,678.248,797.583,678.248,804.741z"/>
		</g>
	</g>
	<g>
		<g>
			<path fill="#6CBFB7" d="M626.646,935.505c0,11.413-4.626,21.746-12.106,29.225c-7.479,7.479-17.812,12.106-29.225,12.106
				s-21.746-4.626-29.225-12.106c-7.479-7.479-12.106-17.812-12.106-29.225s4.626-21.746,12.106-29.225
				c7.479-7.479,17.812-12.105,29.225-12.105s21.746,4.626,29.225,12.105C622.02,913.759,626.646,924.092,626.646,935.505z"/>
		</g>
	</g>
</g>
</svg>
